
<!-- assets/arrow.svg -->
<svg xmlns="http://www.w3.org/2000/svg" viewBox="0 0 640 640">
  <defs>
    <linearGradient id="grad" x1="0%" y1="0%" x2="100%" y2="100%">
      <stop offset="0%" stop-color="#4158D0"/>
      <stop offset="50%" stop-color="#C850C0"/>
      <stop offset="80%" stop-color="#FFCC70"/>
    </linearGradient>
  </defs>
  <path d="M342.6 81.4C330.1 68.9 309.8 68.9 297.3 81.4L137.3 241.4C124.8 253.9 124.8 274.2 137.3 286.7C149.8 299.2 170.1 299.2 182.6 286.7L288 181.3L288 552C288 569.7 302.3 584 320 584C337.7 584 352 569.7 352 552L352 181.3L457.4 286.7C469.9 299.2 490.2 299.2 502.7 286.7C515.2 274.2 515.2 253.9 502.7 241.4L342.7 81.4z"
        fill="url(#grad)"/>
</svg>
